<mxfile host="app.diagrams.net" modified="2022-09-16T07:47:09.502Z" agent="5.0 (Windows NT 10.0; Win64; x64) AppleWebKit/537.36 (KHTML, like Gecko) Chrome/103.0.0.0 Safari/537.36" etag="DPNjlCT4H1WMW-jwx5MV" version="20.3.0" type="github">
  <diagram id="qRWvu4nvVuNi6mA624uY" name="第 1 页">
    <mxGraphModel dx="2048" dy="1163" grid="1" gridSize="10" guides="1" tooltips="1" connect="1" arrows="1" fold="1" page="1" pageScale="1" pageWidth="827" pageHeight="1169" math="0" shadow="0">
      <root>
        <mxCell id="0" />
        <mxCell id="1" parent="0" />
        <mxCell id="C2abM-FPhn4GKYd2Bork-1" value="&lt;font style=&quot;font-size: 14px;&quot;&gt;会议创建者&lt;/font&gt;" style="rounded=0;whiteSpace=wrap;html=1;" vertex="1" parent="1">
          <mxGeometry x="90" y="50" width="110" height="60" as="geometry" />
        </mxCell>
        <mxCell id="C2abM-FPhn4GKYd2Bork-2" value="成员互动批注" style="rounded=1;whiteSpace=wrap;html=1;fontSize=14;" vertex="1" parent="1">
          <mxGeometry x="90" y="170" width="110" height="60" as="geometry" />
        </mxCell>
        <mxCell id="C2abM-FPhn4GKYd2Bork-3" value="" style="endArrow=classic;html=1;rounded=0;fontSize=14;entryX=0.5;entryY=0;entryDx=0;entryDy=0;exitX=0.5;exitY=1;exitDx=0;exitDy=0;" edge="1" parent="1" source="C2abM-FPhn4GKYd2Bork-1" target="C2abM-FPhn4GKYd2Bork-2">
          <mxGeometry width="50" height="50" relative="1" as="geometry">
            <mxPoint x="139" y="110" as="sourcePoint" />
            <mxPoint x="189" y="60" as="targetPoint" />
          </mxGeometry>
        </mxCell>
        <mxCell id="C2abM-FPhn4GKYd2Bork-4" value="安全&amp;nbsp; =&amp;gt; 开启" style="rounded=0;whiteSpace=wrap;html=1;fontSize=14;fillColor=none;strokeColor=none;" vertex="1" parent="1">
          <mxGeometry x="120" y="120" width="150" height="30" as="geometry" />
        </mxCell>
        <mxCell id="C2abM-FPhn4GKYd2Bork-5" value="仅屏幕共享者可批注" style="rounded=1;whiteSpace=wrap;html=1;fontSize=14;" vertex="1" parent="1">
          <mxGeometry x="320" y="170" width="110" height="60" as="geometry" />
        </mxCell>
        <mxCell id="C2abM-FPhn4GKYd2Bork-6" value="" style="endArrow=classic;html=1;rounded=0;fontSize=14;entryX=0;entryY=0.5;entryDx=0;entryDy=0;exitX=0.5;exitY=1;exitDx=0;exitDy=0;" edge="1" parent="1" target="C2abM-FPhn4GKYd2Bork-5">
          <mxGeometry width="50" height="50" relative="1" as="geometry">
            <mxPoint x="200" y="200" as="sourcePoint" />
            <mxPoint x="200" y="260" as="targetPoint" />
          </mxGeometry>
        </mxCell>
        <mxCell id="C2abM-FPhn4GKYd2Bork-7" value="否" style="rounded=0;whiteSpace=wrap;html=1;fontSize=14;fillColor=none;strokeColor=none;" vertex="1" parent="1">
          <mxGeometry x="187" y="200" width="150" height="30" as="geometry" />
        </mxCell>
        <mxCell id="C2abM-FPhn4GKYd2Bork-8" value="" style="endArrow=classic;html=1;rounded=0;fontSize=14;entryX=0;entryY=0.5;entryDx=0;entryDy=0;exitX=0.5;exitY=1;exitDx=0;exitDy=0;" edge="1" parent="1" target="C2abM-FPhn4GKYd2Bork-9">
          <mxGeometry width="50" height="50" relative="1" as="geometry">
            <mxPoint x="430" y="199.5" as="sourcePoint" />
            <mxPoint x="550" y="199.5" as="targetPoint" />
          </mxGeometry>
        </mxCell>
        <mxCell id="C2abM-FPhn4GKYd2Bork-9" value="" style="ellipse;whiteSpace=wrap;html=1;aspect=fixed;fontSize=14;fillColor=#008a00;fontColor=#ffffff;strokeColor=#005700;" vertex="1" parent="1">
          <mxGeometry x="500" y="180" width="40" height="40" as="geometry" />
        </mxCell>
        <mxCell id="C2abM-FPhn4GKYd2Bork-10" value="" style="endArrow=classic;html=1;rounded=0;fontSize=14;exitX=0.5;exitY=1;exitDx=0;exitDy=0;" edge="1" parent="1" source="C2abM-FPhn4GKYd2Bork-2">
          <mxGeometry width="50" height="50" relative="1" as="geometry">
            <mxPoint x="390" y="500" as="sourcePoint" />
            <mxPoint x="145" y="300" as="targetPoint" />
          </mxGeometry>
        </mxCell>
        <mxCell id="C2abM-FPhn4GKYd2Bork-11" value="是" style="rounded=0;whiteSpace=wrap;html=1;fontSize=14;fillColor=none;strokeColor=none;" vertex="1" parent="1">
          <mxGeometry x="100" y="250" width="150" height="30" as="geometry" />
        </mxCell>
        <mxCell id="C2abM-FPhn4GKYd2Bork-12" value="&lt;font style=&quot;font-size: 14px;&quot;&gt;屏幕共享者&lt;/font&gt;" style="rounded=0;whiteSpace=wrap;html=1;" vertex="1" parent="1">
          <mxGeometry x="90" y="300" width="110" height="60" as="geometry" />
        </mxCell>
        <mxCell id="C2abM-FPhn4GKYd2Bork-13" value="允许成员添加互动批注？" style="rounded=1;whiteSpace=wrap;html=1;fontSize=14;" vertex="1" parent="1">
          <mxGeometry x="90" y="430" width="110" height="60" as="geometry" />
        </mxCell>
        <mxCell id="C2abM-FPhn4GKYd2Bork-14" value="" style="endArrow=classic;html=1;rounded=0;fontSize=14;entryX=0.5;entryY=0;entryDx=0;entryDy=0;exitX=0.5;exitY=1;exitDx=0;exitDy=0;" edge="1" parent="1" target="C2abM-FPhn4GKYd2Bork-13">
          <mxGeometry width="50" height="50" relative="1" as="geometry">
            <mxPoint x="144.5" y="360" as="sourcePoint" />
            <mxPoint x="144.5" y="420" as="targetPoint" />
          </mxGeometry>
        </mxCell>
        <mxCell id="C2abM-FPhn4GKYd2Bork-15" value="互动批注&amp;nbsp; =&amp;gt; 开启" style="rounded=0;whiteSpace=wrap;html=1;fontSize=14;fillColor=none;strokeColor=none;" vertex="1" parent="1">
          <mxGeometry x="140" y="380" width="150" height="30" as="geometry" />
        </mxCell>
        <mxCell id="C2abM-FPhn4GKYd2Bork-16" value="" style="endArrow=classic;html=1;rounded=0;fontSize=14;exitX=1;exitY=0.5;exitDx=0;exitDy=0;entryX=0.5;entryY=1;entryDx=0;entryDy=0;" edge="1" parent="1" source="C2abM-FPhn4GKYd2Bork-13" target="C2abM-FPhn4GKYd2Bork-5">
          <mxGeometry width="50" height="50" relative="1" as="geometry">
            <mxPoint x="390" y="490" as="sourcePoint" />
            <mxPoint x="440" y="440" as="targetPoint" />
            <Array as="points">
              <mxPoint x="375" y="460" />
            </Array>
          </mxGeometry>
        </mxCell>
        <mxCell id="C2abM-FPhn4GKYd2Bork-17" value="否" style="rounded=0;whiteSpace=wrap;html=1;fontSize=14;fillColor=none;strokeColor=none;" vertex="1" parent="1">
          <mxGeometry x="250" y="460" width="150" height="30" as="geometry" />
        </mxCell>
        <mxCell id="C2abM-FPhn4GKYd2Bork-18" value="" style="endArrow=classic;html=1;rounded=0;fontSize=14;entryX=0.5;entryY=0;entryDx=0;entryDy=0;exitX=0.5;exitY=1;exitDx=0;exitDy=0;" edge="1" parent="1">
          <mxGeometry width="50" height="50" relative="1" as="geometry">
            <mxPoint x="144.5" y="490" as="sourcePoint" />
            <mxPoint x="145" y="560" as="targetPoint" />
          </mxGeometry>
        </mxCell>
        <mxCell id="C2abM-FPhn4GKYd2Bork-19" value="是" style="rounded=0;whiteSpace=wrap;html=1;fontSize=14;fillColor=none;strokeColor=none;" vertex="1" parent="1">
          <mxGeometry x="100" y="510" width="150" height="30" as="geometry" />
        </mxCell>
        <mxCell id="C2abM-FPhn4GKYd2Bork-20" value="安全查询" style="rounded=1;whiteSpace=wrap;html=1;fontSize=14;fillColor=#008a00;fontColor=#ffffff;strokeColor=#005700;" vertex="1" parent="1">
          <mxGeometry x="90" y="560" width="110" height="60" as="geometry" />
        </mxCell>
        <mxCell id="C2abM-FPhn4GKYd2Bork-21" value="互动批注" style="rounded=1;whiteSpace=wrap;html=1;fontSize=14;" vertex="1" parent="1">
          <mxGeometry x="90" y="690" width="110" height="60" as="geometry" />
        </mxCell>
        <mxCell id="C2abM-FPhn4GKYd2Bork-22" value="" style="endArrow=classic;html=1;rounded=0;fontSize=14;exitX=0.5;exitY=1;exitDx=0;exitDy=0;" edge="1" parent="1">
          <mxGeometry width="50" height="50" relative="1" as="geometry">
            <mxPoint x="144.5" y="620" as="sourcePoint" />
            <mxPoint x="144.5" y="690" as="targetPoint" />
          </mxGeometry>
        </mxCell>
        <mxCell id="C2abM-FPhn4GKYd2Bork-23" value="XMPP" style="rounded=1;whiteSpace=wrap;html=1;fontSize=14;fillColor=#dae8fc;strokeColor=#6c8ebf;" vertex="1" parent="1">
          <mxGeometry x="440" y="570" width="86" height="40" as="geometry" />
        </mxCell>
        <mxCell id="C2abM-FPhn4GKYd2Bork-24" value="power_mgr" style="rounded=1;whiteSpace=wrap;html=1;fontSize=14;fillColor=#dae8fc;strokeColor=#6c8ebf;" vertex="1" parent="1">
          <mxGeometry x="590" y="570" width="86" height="40" as="geometry" />
        </mxCell>
        <mxCell id="C2abM-FPhn4GKYd2Bork-25" value="安全" style="rounded=1;whiteSpace=wrap;html=1;fontSize=14;fillColor=#dae8fc;strokeColor=#6c8ebf;" vertex="1" parent="1">
          <mxGeometry x="741" y="570" width="86" height="40" as="geometry" />
        </mxCell>
        <mxCell id="C2abM-FPhn4GKYd2Bork-26" value="安全策略" style="rounded=1;whiteSpace=wrap;html=1;fontSize=14;fillColor=#dae8fc;strokeColor=#6c8ebf;" vertex="1" parent="1">
          <mxGeometry x="920" y="620" width="86" height="40" as="geometry" />
        </mxCell>
        <mxCell id="C2abM-FPhn4GKYd2Bork-27" value="画像数据" style="rounded=1;whiteSpace=wrap;html=1;fontSize=14;fillColor=#dae8fc;strokeColor=#6c8ebf;" vertex="1" parent="1">
          <mxGeometry x="920" y="510" width="86" height="40" as="geometry" />
        </mxCell>
        <mxCell id="C2abM-FPhn4GKYd2Bork-28" value="终端" style="rounded=1;whiteSpace=wrap;html=1;fontSize=14;fillColor=#dae8fc;strokeColor=#6c8ebf;" vertex="1" parent="1">
          <mxGeometry x="290" y="570" width="86" height="40" as="geometry" />
        </mxCell>
        <mxCell id="C2abM-FPhn4GKYd2Bork-29" value="" style="curved=1;endArrow=classic;html=1;rounded=0;fontSize=14;exitX=1;exitY=0.5;exitDx=0;exitDy=0;entryX=0;entryY=0.5;entryDx=0;entryDy=0;dashed=1;strokeWidth=2;" edge="1" parent="1" source="C2abM-FPhn4GKYd2Bork-20" target="C2abM-FPhn4GKYd2Bork-28">
          <mxGeometry width="50" height="50" relative="1" as="geometry">
            <mxPoint x="620" y="490" as="sourcePoint" />
            <mxPoint x="280" y="590" as="targetPoint" />
            <Array as="points">
              <mxPoint x="230" y="590" />
              <mxPoint x="250" y="610" />
            </Array>
          </mxGeometry>
        </mxCell>
        <mxCell id="C2abM-FPhn4GKYd2Bork-30" value="" style="endArrow=classic;html=1;rounded=0;strokeWidth=1.5;fontSize=14;entryX=0;entryY=0.5;entryDx=0;entryDy=0;" edge="1" parent="1" target="C2abM-FPhn4GKYd2Bork-23">
          <mxGeometry width="50" height="50" relative="1" as="geometry">
            <mxPoint x="376" y="589.5" as="sourcePoint" />
            <mxPoint x="426" y="589.5" as="targetPoint" />
          </mxGeometry>
        </mxCell>
        <mxCell id="C2abM-FPhn4GKYd2Bork-31" value="" style="endArrow=classic;html=1;rounded=0;strokeWidth=1.5;fontSize=14;entryX=0;entryY=0.5;entryDx=0;entryDy=0;" edge="1" parent="1">
          <mxGeometry width="50" height="50" relative="1" as="geometry">
            <mxPoint x="526" y="589.5" as="sourcePoint" />
            <mxPoint x="590" y="590" as="targetPoint" />
          </mxGeometry>
        </mxCell>
        <mxCell id="C2abM-FPhn4GKYd2Bork-32" value="" style="endArrow=classic;html=1;rounded=0;strokeWidth=1.5;fontSize=14;entryX=0;entryY=0.5;entryDx=0;entryDy=0;" edge="1" parent="1">
          <mxGeometry width="50" height="50" relative="1" as="geometry">
            <mxPoint x="676" y="589.5" as="sourcePoint" />
            <mxPoint x="740" y="590" as="targetPoint" />
            <Array as="points">
              <mxPoint x="710" y="590" />
            </Array>
          </mxGeometry>
        </mxCell>
        <mxCell id="C2abM-FPhn4GKYd2Bork-33" value="" style="curved=1;endArrow=classic;html=1;rounded=0;strokeWidth=1.5;fontSize=14;exitX=0;exitY=0.5;exitDx=0;exitDy=0;entryX=1;entryY=0.5;entryDx=0;entryDy=0;" edge="1" parent="1" source="C2abM-FPhn4GKYd2Bork-27" target="C2abM-FPhn4GKYd2Bork-25">
          <mxGeometry width="50" height="50" relative="1" as="geometry">
            <mxPoint x="620" y="490" as="sourcePoint" />
            <mxPoint x="670" y="440" as="targetPoint" />
            <Array as="points">
              <mxPoint x="900" y="550" />
              <mxPoint x="850" y="550" />
            </Array>
          </mxGeometry>
        </mxCell>
        <mxCell id="C2abM-FPhn4GKYd2Bork-34" value="HBase" style="shape=cylinder3;whiteSpace=wrap;html=1;boundedLbl=1;backgroundOutline=1;size=15;fontSize=14;fillColor=#dae8fc;strokeColor=#6c8ebf;" vertex="1" parent="1">
          <mxGeometry x="1030" y="490" width="60" height="70" as="geometry" />
        </mxCell>
        <mxCell id="C2abM-FPhn4GKYd2Bork-35" value="" style="curved=1;endArrow=classic;html=1;rounded=0;strokeWidth=1.5;fontSize=14;exitX=1;exitY=1;exitDx=0;exitDy=0;entryX=0;entryY=0.5;entryDx=0;entryDy=0;" edge="1" parent="1" source="C2abM-FPhn4GKYd2Bork-25" target="C2abM-FPhn4GKYd2Bork-26">
          <mxGeometry width="50" height="50" relative="1" as="geometry">
            <mxPoint x="620" y="490" as="sourcePoint" />
            <mxPoint x="670" y="440" as="targetPoint" />
            <Array as="points">
              <mxPoint x="870" y="610" />
              <mxPoint x="880" y="630" />
            </Array>
          </mxGeometry>
        </mxCell>
        <mxCell id="C2abM-FPhn4GKYd2Bork-36" value="查询" style="rounded=0;whiteSpace=wrap;html=1;fontSize=14;fillColor=none;strokeColor=none;" vertex="1" parent="1">
          <mxGeometry x="780" y="530" width="150" height="30" as="geometry" />
        </mxCell>
        <mxCell id="C2abM-FPhn4GKYd2Bork-37" value="上报" style="rounded=0;whiteSpace=wrap;html=1;fontSize=14;fillColor=none;strokeColor=none;" vertex="1" parent="1">
          <mxGeometry x="790" y="620" width="150" height="30" as="geometry" />
        </mxCell>
        <mxCell id="C2abM-FPhn4GKYd2Bork-38" value="携带上报数据" style="rounded=0;whiteSpace=wrap;html=1;fontSize=14;fillColor=none;strokeColor=none;" vertex="1" parent="1">
          <mxGeometry x="640" y="610" width="150" height="30" as="geometry" />
        </mxCell>
        <mxCell id="C2abM-FPhn4GKYd2Bork-39" value="平均耗时30ms" style="rounded=0;whiteSpace=wrap;html=1;fontSize=14;fillColor=none;strokeColor=none;" vertex="1" parent="1">
          <mxGeometry x="1080" y="515" width="150" height="30" as="geometry" />
        </mxCell>
        <mxCell id="C2abM-FPhn4GKYd2Bork-40" value="弹窗提示" style="rounded=1;whiteSpace=wrap;html=1;fontSize=14;fillColor=#dae8fc;strokeColor=#6c8ebf;" vertex="1" parent="1">
          <mxGeometry x="290" y="670" width="86" height="40" as="geometry" />
        </mxCell>
        <mxCell id="C2abM-FPhn4GKYd2Bork-41" value="" style="curved=1;endArrow=classic;html=1;rounded=0;strokeWidth=1.5;fontSize=14;exitX=1;exitY=0;exitDx=0;exitDy=0;entryX=0.5;entryY=1;entryDx=0;entryDy=0;fillColor=#dae8fc;strokeColor=#6c8ebf;dashed=1;" edge="1" parent="1" source="C2abM-FPhn4GKYd2Bork-38" target="C2abM-FPhn4GKYd2Bork-24">
          <mxGeometry width="50" height="50" relative="1" as="geometry">
            <mxPoint x="620" y="490" as="sourcePoint" />
            <mxPoint x="600" y="430" as="targetPoint" />
            <Array as="points">
              <mxPoint x="740" y="650" />
              <mxPoint x="680" y="650" />
              <mxPoint x="640" y="625" />
            </Array>
          </mxGeometry>
        </mxCell>
        <mxCell id="C2abM-FPhn4GKYd2Bork-42" value="" style="curved=1;endArrow=classic;html=1;rounded=0;strokeWidth=1.5;fontSize=14;exitX=1;exitY=0;exitDx=0;exitDy=0;entryX=0.5;entryY=1;entryDx=0;entryDy=0;fillColor=#dae8fc;strokeColor=#6c8ebf;dashed=1;" edge="1" parent="1" target="C2abM-FPhn4GKYd2Bork-23">
          <mxGeometry width="50" height="50" relative="1" as="geometry">
            <mxPoint x="627" y="615" as="sourcePoint" />
            <mxPoint x="470" y="615" as="targetPoint" />
            <Array as="points">
              <mxPoint x="577" y="655" />
              <mxPoint x="520" y="650" />
            </Array>
          </mxGeometry>
        </mxCell>
        <mxCell id="C2abM-FPhn4GKYd2Bork-43" value="" style="curved=1;endArrow=classic;html=1;rounded=0;strokeWidth=1.5;fontSize=14;exitX=1;exitY=0;exitDx=0;exitDy=0;entryX=0.5;entryY=1;entryDx=0;entryDy=0;fillColor=#dae8fc;strokeColor=#6c8ebf;dashed=1;" edge="1" parent="1">
          <mxGeometry width="50" height="50" relative="1" as="geometry">
            <mxPoint x="481" y="615" as="sourcePoint" />
            <mxPoint x="337" y="610" as="targetPoint" />
            <Array as="points">
              <mxPoint x="431" y="655" />
              <mxPoint x="374" y="650" />
            </Array>
          </mxGeometry>
        </mxCell>
        <mxCell id="C2abM-FPhn4GKYd2Bork-44" value="" style="endArrow=classic;html=1;rounded=0;fontSize=14;exitX=0.5;exitY=1;exitDx=0;exitDy=0;fillColor=#dae8fc;strokeColor=#6c8ebf;" edge="1" parent="1">
          <mxGeometry width="50" height="50" relative="1" as="geometry">
            <mxPoint x="332.5" y="610" as="sourcePoint" />
            <mxPoint x="332.5" y="670" as="targetPoint" />
          </mxGeometry>
        </mxCell>
        <mxCell id="C2abM-FPhn4GKYd2Bork-45" value="主持人一键关闭" style="rounded=1;whiteSpace=wrap;html=1;fontSize=14;" vertex="1" parent="1">
          <mxGeometry x="90" y="820" width="110" height="60" as="geometry" />
        </mxCell>
        <mxCell id="C2abM-FPhn4GKYd2Bork-46" value="" style="endArrow=classic;html=1;rounded=0;fontSize=14;exitX=0.5;exitY=1;exitDx=0;exitDy=0;" edge="1" parent="1">
          <mxGeometry width="50" height="50" relative="1" as="geometry">
            <mxPoint x="144.5" y="750" as="sourcePoint" />
            <mxPoint x="144.5" y="820" as="targetPoint" />
          </mxGeometry>
        </mxCell>
        <mxCell id="C2abM-FPhn4GKYd2Bork-47" value="XMPP" style="rounded=1;whiteSpace=wrap;html=1;fontSize=14;fillColor=#dae8fc;strokeColor=#6c8ebf;" vertex="1" parent="1">
          <mxGeometry x="440" y="830" width="86" height="40" as="geometry" />
        </mxCell>
        <mxCell id="C2abM-FPhn4GKYd2Bork-48" value="center" style="rounded=1;whiteSpace=wrap;html=1;fontSize=14;fillColor=#dae8fc;strokeColor=#6c8ebf;" vertex="1" parent="1">
          <mxGeometry x="590" y="830" width="86" height="40" as="geometry" />
        </mxCell>
        <mxCell id="C2abM-FPhn4GKYd2Bork-49" value="数据中台log_svr" style="rounded=1;whiteSpace=wrap;html=1;fontSize=14;fillColor=#dae8fc;strokeColor=#6c8ebf;" vertex="1" parent="1">
          <mxGeometry x="741" y="830" width="86" height="40" as="geometry" />
        </mxCell>
        <mxCell id="C2abM-FPhn4GKYd2Bork-52" value="终端" style="rounded=1;whiteSpace=wrap;html=1;fontSize=14;fillColor=#dae8fc;strokeColor=#6c8ebf;" vertex="1" parent="1">
          <mxGeometry x="290" y="830" width="86" height="40" as="geometry" />
        </mxCell>
        <mxCell id="C2abM-FPhn4GKYd2Bork-53" value="" style="endArrow=classic;html=1;rounded=0;strokeWidth=1.5;fontSize=14;entryX=0;entryY=0.5;entryDx=0;entryDy=0;" edge="1" parent="1" target="C2abM-FPhn4GKYd2Bork-47">
          <mxGeometry width="50" height="50" relative="1" as="geometry">
            <mxPoint x="376" y="849.5" as="sourcePoint" />
            <mxPoint x="426" y="849.5" as="targetPoint" />
          </mxGeometry>
        </mxCell>
        <mxCell id="C2abM-FPhn4GKYd2Bork-54" value="" style="endArrow=classic;html=1;rounded=0;strokeWidth=1.5;fontSize=14;entryX=0;entryY=0.5;entryDx=0;entryDy=0;" edge="1" parent="1">
          <mxGeometry width="50" height="50" relative="1" as="geometry">
            <mxPoint x="526" y="849.5" as="sourcePoint" />
            <mxPoint x="590" y="850" as="targetPoint" />
          </mxGeometry>
        </mxCell>
        <mxCell id="C2abM-FPhn4GKYd2Bork-55" value="" style="endArrow=classic;html=1;rounded=0;strokeWidth=1.5;fontSize=14;entryX=0;entryY=0.5;entryDx=0;entryDy=0;" edge="1" parent="1">
          <mxGeometry width="50" height="50" relative="1" as="geometry">
            <mxPoint x="676" y="849.5" as="sourcePoint" />
            <mxPoint x="740" y="850" as="targetPoint" />
            <Array as="points">
              <mxPoint x="710" y="850" />
            </Array>
          </mxGeometry>
        </mxCell>
        <mxCell id="C2abM-FPhn4GKYd2Bork-60" value="上报" style="rounded=0;whiteSpace=wrap;html=1;fontSize=14;fillColor=none;strokeColor=none;" vertex="1" parent="1">
          <mxGeometry x="630" y="800" width="150" height="30" as="geometry" />
        </mxCell>
        <mxCell id="C2abM-FPhn4GKYd2Bork-68" value="" style="curved=1;endArrow=classic;html=1;rounded=0;fontSize=14;exitX=1;exitY=0.5;exitDx=0;exitDy=0;entryX=0;entryY=0.5;entryDx=0;entryDy=0;dashed=1;strokeWidth=2;" edge="1" parent="1">
          <mxGeometry width="50" height="50" relative="1" as="geometry">
            <mxPoint x="200" y="850" as="sourcePoint" />
            <mxPoint x="290" y="850" as="targetPoint" />
            <Array as="points">
              <mxPoint x="230" y="850" />
              <mxPoint x="250" y="870" />
            </Array>
          </mxGeometry>
        </mxCell>
        <mxCell id="C2abM-FPhn4GKYd2Bork-69" value="增加信令" style="rounded=0;whiteSpace=wrap;html=1;fontSize=14;fillColor=none;strokeColor=none;" vertex="1" parent="1">
          <mxGeometry x="330" y="540" width="150" height="30" as="geometry" />
        </mxCell>
        <mxCell id="C2abM-FPhn4GKYd2Bork-70" value="已有信令&lt;br&gt;MEETING_LOGIC_CMD_C2S_SETUP_MEETING_CONFIG_REQ" style="rounded=0;whiteSpace=wrap;html=1;fontSize=14;fillColor=none;strokeColor=none;" vertex="1" parent="1">
          <mxGeometry x="330" y="880" width="150" height="30" as="geometry" />
        </mxCell>
      </root>
    </mxGraphModel>
  </diagram>
</mxfile>
